<svg xmlns="http://www.w3.org/2000/svg" viewBox="0 0 64 64">
  <path
    fill="#000000"
    d="M20.4 6.8c-1.7 0-3.1 1.4-3.1 3.1v7.2c0 .7.3 1.4.8 1.9l4.4 4.4c.8.8 2.1.8 2.9 0l3.7-3.7c.8-.8.8-2.1 0-2.9L24.6 12c-.5-.5-1.2-.8-1.9-.8h-2.3zm21 2.7c-1.1 0-2 .9-2 2s.9 2 2 2h7c1.1 0 2-.9 2-2s-.9-2-2-2h-7zm-4 8c-1.1 0-2 .9-2 2s.9 2 2 2h14c1.1 0 2-.9 2-2s-.9-2-2-2h-14zm2 8c-1.1 0-2 .9-2 2s.9 2 2 2h12c1.1 0 2-.9 2-2s-.9-2-2-2h-12zM13.7 21.1c-2.2 2.2-3.2 5.4-2.7 8.4 1.7 9.8 6.2 18.8 13 25.7 6.9 6.9 15.9 11.4 25.7 13 3 .5 6.2-.5 8.4-2.7l4-4c1.5-1.5 1.5-3.9 0-5.4l-8-8c-1.2-1.2-3-1.5-4.5-.8l-6.3 2.9c-.8.4-1.8.2-2.5-.4l-7.9-7.9c-.7-.7-.8-1.7-.4-2.5l2.9-6.3c.7-1.5.4-3.3-.8-4.5l-8-8c-1.5-1.5-3.9-1.5-5.4 0l-4 4z"
  />
</svg>
